<mxfile host="app.diagrams.net" agent="Mozilla/5.0 (Windows NT 10.0; Win64; x64) AppleWebKit/537.36 (KHTML, like Gecko) Chrome/140.0.0.0 Safari/537.36" version="28.2.3">
  <diagram name="Page-1" id="4qutcBso-nuwdlZYtBJC">
    <mxGraphModel dx="1426" dy="743" grid="1" gridSize="10" guides="1" tooltips="1" connect="1" arrows="1" fold="1" page="1" pageScale="1" pageWidth="850" pageHeight="1100" math="0" shadow="0">
      <root>
        <mxCell id="0" />
        <mxCell id="1" parent="0" />
        <mxCell id="p1_5IseKk77hGgTQxTIQ-1" value="" style="ellipse;whiteSpace=wrap;html=1;aspect=fixed;" parent="1" vertex="1">
          <mxGeometry x="430" y="70" width="20" height="20" as="geometry" />
        </mxCell>
        <mxCell id="p1_5IseKk77hGgTQxTIQ-5" style="edgeStyle=orthogonalEdgeStyle;rounded=0;orthogonalLoop=1;jettySize=auto;html=1;" parent="1" source="p1_5IseKk77hGgTQxTIQ-4" edge="1">
          <mxGeometry relative="1" as="geometry">
            <mxPoint x="440" y="170" as="targetPoint" />
          </mxGeometry>
        </mxCell>
        <mxCell id="p1_5IseKk77hGgTQxTIQ-4" value="" style="shape=waypoint;sketch=0;fillStyle=solid;size=6;pointerEvents=1;points=[];fillColor=none;resizable=0;rotatable=0;perimeter=centerPerimeter;snapToPoint=1;" parent="1" vertex="1">
          <mxGeometry x="430" y="70" width="20" height="20" as="geometry" />
        </mxCell>
        <mxCell id="p1_5IseKk77hGgTQxTIQ-48" value="" style="edgeStyle=orthogonalEdgeStyle;rounded=0;orthogonalLoop=1;jettySize=auto;html=1;" parent="1" source="p1_5IseKk77hGgTQxTIQ-11" target="p1_5IseKk77hGgTQxTIQ-44" edge="1">
          <mxGeometry relative="1" as="geometry" />
        </mxCell>
        <mxCell id="p1_5IseKk77hGgTQxTIQ-11" value="Se connecter" style="rounded=0;whiteSpace=wrap;html=1;" parent="1" vertex="1">
          <mxGeometry x="300" y="240" width="100" height="30" as="geometry" />
        </mxCell>
        <mxCell id="p1_5IseKk77hGgTQxTIQ-14" value="Modif.&lt;div&gt;parametres?&lt;/div&gt;" style="html=1;whiteSpace=wrap;aspect=fixed;shape=isoRectangle;" parent="1" vertex="1">
          <mxGeometry x="221.67000000000002" y="510" width="116.66" height="70" as="geometry" />
        </mxCell>
        <mxCell id="p1_5IseKk77hGgTQxTIQ-72" value="" style="edgeStyle=orthogonalEdgeStyle;rounded=0;orthogonalLoop=1;jettySize=auto;html=1;" parent="1" source="p1_5IseKk77hGgTQxTIQ-15" target="p1_5IseKk77hGgTQxTIQ-16" edge="1">
          <mxGeometry relative="1" as="geometry" />
        </mxCell>
        <mxCell id="p1_5IseKk77hGgTQxTIQ-15" value="Modifier les parametres" style="rounded=0;whiteSpace=wrap;html=1;" parent="1" vertex="1">
          <mxGeometry x="150" y="660" width="100" height="40" as="geometry" />
        </mxCell>
        <mxCell id="p1_5IseKk77hGgTQxTIQ-16" value="Discussion" style="rounded=0;whiteSpace=wrap;html=1;" parent="1" vertex="1">
          <mxGeometry x="160" y="760" width="320" height="30" as="geometry" />
        </mxCell>
        <mxCell id="p1_5IseKk77hGgTQxTIQ-35" value="Accueil" style="rounded=0;whiteSpace=wrap;html=1;" parent="1" vertex="1">
          <mxGeometry x="387.5" y="170" width="105" height="30" as="geometry" />
        </mxCell>
        <mxCell id="p1_5IseKk77hGgTQxTIQ-44" value="" style="html=1;whiteSpace=wrap;aspect=fixed;shape=isoRectangle;" parent="1" vertex="1">
          <mxGeometry x="316.65999999999997" y="290" width="66.67" height="40" as="geometry" />
        </mxCell>
        <mxCell id="p1_5IseKk77hGgTQxTIQ-46" value="" style="curved=1;endArrow=classic;html=1;rounded=0;exitX=0.5;exitY=1;exitDx=0;exitDy=0;" parent="1" source="p1_5IseKk77hGgTQxTIQ-35" edge="1">
          <mxGeometry width="50" height="50" relative="1" as="geometry">
            <mxPoint x="425" y="210" as="sourcePoint" />
            <mxPoint x="350" y="240" as="targetPoint" />
            <Array as="points">
              <mxPoint x="360" y="210" />
              <mxPoint x="350" y="240" />
            </Array>
          </mxGeometry>
        </mxCell>
        <mxCell id="p1_5IseKk77hGgTQxTIQ-47" value="" style="curved=1;endArrow=classic;html=1;rounded=0;exitX=1;exitY=0.5;exitDx=0;exitDy=0;entryX=0.75;entryY=1;entryDx=0;entryDy=0;" parent="1" source="p1_5IseKk77hGgTQxTIQ-66" target="p1_5IseKk77hGgTQxTIQ-35" edge="1">
          <mxGeometry width="50" height="50" relative="1" as="geometry">
            <mxPoint x="490" y="470" as="sourcePoint" />
            <mxPoint x="470" y="220" as="targetPoint" />
            <Array as="points">
              <mxPoint x="550" y="380" />
              <mxPoint x="520" y="230" />
            </Array>
          </mxGeometry>
        </mxCell>
        <mxCell id="p1_5IseKk77hGgTQxTIQ-50" value="" style="endArrow=none;html=1;rounded=0;entryX=0.171;entryY=0.743;entryDx=0;entryDy=0;entryPerimeter=0;" parent="1" target="p1_5IseKk77hGgTQxTIQ-44" edge="1">
          <mxGeometry width="50" height="50" relative="1" as="geometry">
            <mxPoint x="280" y="370" as="sourcePoint" />
            <mxPoint x="330" y="320" as="targetPoint" />
            <Array as="points">
              <mxPoint x="290" y="340" />
            </Array>
          </mxGeometry>
        </mxCell>
        <mxCell id="p1_5IseKk77hGgTQxTIQ-55" value="" style="edgeStyle=orthogonalEdgeStyle;rounded=0;orthogonalLoop=1;jettySize=auto;html=1;" parent="1" source="p1_5IseKk77hGgTQxTIQ-51" target="p1_5IseKk77hGgTQxTIQ-54" edge="1">
          <mxGeometry relative="1" as="geometry" />
        </mxCell>
        <mxCell id="p1_5IseKk77hGgTQxTIQ-51" value="&lt;div style=&quot;text-align: center;&quot;&gt;&lt;span style=&quot;background-color: transparent; color: light-dark(rgb(0, 0, 0), rgb(255, 255, 255));&quot;&gt;connexion rÃ©ussie&lt;/span&gt;&lt;/div&gt;" style="text;whiteSpace=wrap;html=1;fontStyle=2" parent="1" vertex="1">
          <mxGeometry x="230" y="360" width="100" height="30" as="geometry" />
        </mxCell>
        <mxCell id="p1_5IseKk77hGgTQxTIQ-59" value="" style="edgeStyle=orthogonalEdgeStyle;rounded=0;orthogonalLoop=1;jettySize=auto;html=1;" parent="1" source="p1_5IseKk77hGgTQxTIQ-54" target="p1_5IseKk77hGgTQxTIQ-14" edge="1">
          <mxGeometry relative="1" as="geometry" />
        </mxCell>
        <mxCell id="p1_5IseKk77hGgTQxTIQ-54" value="Demarrer une conversation" style="rounded=0;whiteSpace=wrap;html=1;" parent="1" vertex="1">
          <mxGeometry x="230" y="450" width="100" height="40" as="geometry" />
        </mxCell>
        <mxCell id="p1_5IseKk77hGgTQxTIQ-56" style="edgeStyle=orthogonalEdgeStyle;rounded=0;orthogonalLoop=1;jettySize=auto;html=1;exitX=0.5;exitY=1;exitDx=0;exitDy=0;" parent="1" source="p1_5IseKk77hGgTQxTIQ-51" target="p1_5IseKk77hGgTQxTIQ-51" edge="1">
          <mxGeometry relative="1" as="geometry" />
        </mxCell>
        <mxCell id="p1_5IseKk77hGgTQxTIQ-60" value="" style="endArrow=none;html=1;rounded=0;entryX=0.171;entryY=0.743;entryDx=0;entryDy=0;entryPerimeter=0;" parent="1" edge="1">
          <mxGeometry width="50" height="50" relative="1" as="geometry">
            <mxPoint x="200" y="610" as="sourcePoint" />
            <mxPoint x="248" y="560" as="targetPoint" />
            <Array as="points">
              <mxPoint x="210" y="580" />
            </Array>
          </mxGeometry>
        </mxCell>
        <mxCell id="p1_5IseKk77hGgTQxTIQ-63" value="" style="edgeStyle=orthogonalEdgeStyle;rounded=0;orthogonalLoop=1;jettySize=auto;html=1;" parent="1" source="p1_5IseKk77hGgTQxTIQ-61" target="p1_5IseKk77hGgTQxTIQ-15" edge="1">
          <mxGeometry relative="1" as="geometry" />
        </mxCell>
        <mxCell id="p1_5IseKk77hGgTQxTIQ-61" value="&lt;div style=&quot;text-align: center;&quot;&gt;&lt;span style=&quot;background-color: transparent; color: light-dark(rgb(0, 0, 0), rgb(255, 255, 255));&quot;&gt;Oui, modification&lt;/span&gt;&lt;/div&gt;" style="text;whiteSpace=wrap;html=1;fontStyle=2" parent="1" vertex="1">
          <mxGeometry x="150" y="610" width="100" height="30" as="geometry" />
        </mxCell>
        <mxCell id="p1_5IseKk77hGgTQxTIQ-64" value="" style="endArrow=none;html=1;rounded=0;entryX=0.853;entryY=0.76;entryDx=0;entryDy=0;entryPerimeter=0;" parent="1" target="p1_5IseKk77hGgTQxTIQ-44" edge="1">
          <mxGeometry width="50" height="50" relative="1" as="geometry">
            <mxPoint x="420" y="370" as="sourcePoint" />
            <mxPoint x="425" y="320" as="targetPoint" />
            <Array as="points">
              <mxPoint x="410" y="330" />
            </Array>
          </mxGeometry>
        </mxCell>
        <mxCell id="p1_5IseKk77hGgTQxTIQ-69" value="" style="edgeStyle=orthogonalEdgeStyle;rounded=0;orthogonalLoop=1;jettySize=auto;html=1;" parent="1" source="p1_5IseKk77hGgTQxTIQ-65" target="p1_5IseKk77hGgTQxTIQ-66" edge="1">
          <mxGeometry relative="1" as="geometry" />
        </mxCell>
        <mxCell id="p1_5IseKk77hGgTQxTIQ-65" value="&lt;div style=&quot;text-align: center;&quot;&gt;&lt;span style=&quot;background-color: transparent; color: light-dark(rgb(0, 0, 0), rgb(255, 255, 255));&quot;&gt;compte inexistent&lt;/span&gt;&lt;/div&gt;" style="text;whiteSpace=wrap;html=1;fontStyle=2" parent="1" vertex="1">
          <mxGeometry x="370" y="360" width="100" height="30" as="geometry" />
        </mxCell>
        <mxCell id="p1_5IseKk77hGgTQxTIQ-66" value="Creer un compte" style="rounded=0;whiteSpace=wrap;html=1;" parent="1" vertex="1">
          <mxGeometry x="370" y="460" width="100" height="30" as="geometry" />
        </mxCell>
        <mxCell id="p1_5IseKk77hGgTQxTIQ-70" value="" style="endArrow=none;html=1;rounded=0;entryX=0.853;entryY=0.76;entryDx=0;entryDy=0;entryPerimeter=0;" parent="1" edge="1">
          <mxGeometry width="50" height="50" relative="1" as="geometry">
            <mxPoint x="362.66" y="610" as="sourcePoint" />
            <mxPoint x="316.66" y="560" as="targetPoint" />
            <Array as="points">
              <mxPoint x="352.66" y="570" />
            </Array>
          </mxGeometry>
        </mxCell>
        <mxCell id="p1_5IseKk77hGgTQxTIQ-73" value="" style="edgeStyle=orthogonalEdgeStyle;rounded=0;orthogonalLoop=1;jettySize=auto;html=1;" parent="1" source="p1_5IseKk77hGgTQxTIQ-71" target="p1_5IseKk77hGgTQxTIQ-16" edge="1">
          <mxGeometry relative="1" as="geometry" />
        </mxCell>
        <mxCell id="p1_5IseKk77hGgTQxTIQ-71" value="&lt;div style=&quot;text-align: center;&quot;&gt;&lt;span style=&quot;background-color: transparent; color: light-dark(rgb(0, 0, 0), rgb(255, 255, 255));&quot;&gt;Non, continuer&lt;/span&gt;&lt;/div&gt;" style="text;whiteSpace=wrap;html=1;fontStyle=2" parent="1" vertex="1">
          <mxGeometry x="316.65999999999997" y="610" width="100" height="30" as="geometry" />
        </mxCell>
      </root>
    </mxGraphModel>
  </diagram>
</mxfile>
